<svg width="22" height="22" viewBox="0 0 22 22" fill="none" xmlns="http://www.w3.org/2000/svg">
<path d="M21.0672 18.1778C21.1244 18.3352 21.1356 18.5056 21.0993 18.669C21.0631 18.8325 20.981 18.9822 20.8626 19.1006L18.223 21.7403C18.1413 21.8222 18.0443 21.8872 17.9375 21.9315C17.8307 21.9759 17.7162 21.9987 17.6005 21.9988C17.5716 22.0004 17.5426 22.0004 17.5136 21.9988C17.3841 21.986 17.259 21.9447 17.1473 21.8777C17.0357 21.8108 16.9403 21.7199 16.868 21.6116L12.021 14.3392L9.68169 16.6743V19.3591C9.68158 19.5921 9.58903 19.8156 9.42433 19.9805C9.42433 19.9805 7.88456 21.5269 7.67779 21.7271C7.59184 21.8171 7.48757 21.8876 7.37204 21.9339C7.15671 22.0216 6.91541 22.0205 6.70088 21.9309C6.48634 21.8412 6.31601 21.6703 6.22711 21.4554L6.22051 21.439L4.60375 17.3958L0.553062 15.7757C0.417934 15.7216 0.298325 15.6349 0.204951 15.5232C0.111577 15.4116 0.0473547 15.2785 0.0180369 15.136C-0.0112809 14.9934 -0.00477837 14.8458 0.0369621 14.7064C0.0787026 14.5669 0.154377 14.44 0.257207 14.337L2.01694 12.5772C2.09911 12.4952 2.19671 12.4302 2.30412 12.386C2.41152 12.3418 2.52661 12.3193 2.64275 12.3199H5.32635L7.66569 9.98044L0.394686 5.13218C0.28624 5.05999 0.195178 4.96461 0.128076 4.85294C0.0609742 4.74127 0.0195072 4.61609 0.00666908 4.48644C-0.006169 4.35679 0.00994232 4.22591 0.0538397 4.10324C0.0977371 3.98058 0.168325 3.8692 0.260506 3.77713L2.90011 1.13743C3.01852 1.01907 3.16824 0.93695 3.33169 0.900713C3.49514 0.864476 3.66554 0.875626 3.82287 0.932853L13.2749 4.36997L16.7426 0.902056C17.3202 0.324479 18.1035 0 18.9203 0C19.3247 0 19.7252 0.0796616 20.0989 0.234437C20.4725 0.389212 20.812 0.616069 21.098 0.902056C21.384 1.18804 21.6108 1.52756 21.7656 1.90122C21.9203 2.27488 22 2.67536 22 3.07981C22 3.48426 21.9203 3.88474 21.7656 4.2584C21.6108 4.63206 21.384 4.97158 21.098 5.25757L17.6302 8.72548L21.0672 18.1778Z" fill="#FA646D"/>
</svg>
