<svg width="23" height="22" viewBox="0 0 23 22" fill="none" xmlns="http://www.w3.org/2000/svg">
<path d="M18.5517 9.04374L21.9026 6.02783L21.9221 6.00913C22.6123 5.34899 23 4.45365 23 3.52007C23 2.58649 22.6123 1.69114 21.9221 1.031C21.2319 0.370863 20.2959 0 19.3198 0C18.3438 0 17.4077 0.370863 16.7176 1.031C16.7176 1.0376 16.7049 1.0431 16.698 1.0497L13.5449 4.2548L4.00058 0.933113C3.83608 0.875885 3.65793 0.864735 3.48703 0.900973C3.31614 0.937211 3.1596 1.01933 3.0358 1.13769L0.275989 3.77744C0.17982 3.8695 0.106197 3.98082 0.0604251 4.10337C0.014653 4.22592 -0.00212836 4.35666 0.0112901 4.48617C0.0247086 4.61567 0.0679928 4.74072 0.138024 4.85229C0.208055 4.96387 0.30309 5.0592 0.41628 5.13141L7.76313 9.81586L6.05894 11.4404H3.67976C3.4361 11.4405 3.20244 11.5331 3.03005 11.6978L0.27024 14.3375C0.162609 14.4402 0.0832652 14.5668 0.039303 14.706C-0.00465923 14.8452 -0.0118691 14.9927 0.0183181 15.1352C0.0485053 15.2777 0.115149 15.4109 0.212288 15.5227C0.309428 15.6346 0.434036 15.7217 0.574969 15.7762L4.80898 17.3963L6.49936 21.4385L6.50626 21.4561C6.56474 21.5914 6.65763 21.7107 6.77652 21.8031C6.8954 21.8955 7.03651 21.958 7.18705 21.9849C7.33758 22.0119 7.49278 22.0025 7.63856 21.9576C7.78434 21.9127 7.91609 21.8337 8.02186 21.7277L10.7667 19.1012C10.8526 19.0198 10.9209 18.923 10.9676 18.8164C11.0144 18.7098 11.0387 18.5954 11.0393 18.4797V16.2041L12.7365 14.5806L17.634 21.6078C17.7095 21.7161 17.8092 21.807 17.9259 21.874C18.0425 21.941 18.1732 21.9824 18.3086 21.9952C18.444 22.008 18.5807 21.992 18.7088 21.9482C18.837 21.9044 18.9534 21.834 19.0496 21.742L21.8094 19.1023C21.9332 18.9839 22.019 18.8341 22.0569 18.6707C22.0948 18.5072 22.0831 18.3368 22.0233 18.1795L18.5517 9.04374ZM18.5436 19.738L13.6461 12.7119C13.571 12.6028 13.4715 12.5111 13.3548 12.4433C13.238 12.3756 13.107 12.3336 12.9711 12.3203C12.9401 12.3203 12.9102 12.3203 12.8803 12.3203C12.7593 12.3204 12.6396 12.3432 12.5279 12.3876C12.4163 12.4319 12.3148 12.4969 12.2294 12.5788L9.46961 15.2186C9.29699 15.3833 9.19979 15.6068 9.19938 15.84V18.1157L7.69643 19.5532L6.37402 16.3899C6.32775 16.2801 6.25879 16.1804 6.17125 16.0966C6.08372 16.0129 5.97942 15.9469 5.86461 15.9027L2.55973 14.6378L4.06153 13.2002H6.43957C6.56041 13.2003 6.68009 13.1777 6.79176 13.1335C6.90344 13.0893 7.00493 13.0246 7.09042 12.9429L9.85023 10.3031C9.94661 10.2111 10.0204 10.0997 10.0663 9.977C10.1122 9.85434 10.1291 9.72345 10.1156 9.5938C10.1022 9.46415 10.0589 9.33897 9.98869 9.22729C9.91854 9.11562 9.82333 9.02024 9.70994 8.94805L2.36425 4.26249L3.91664 2.77874L13.4863 6.10702C13.6549 6.16628 13.8379 6.17702 14.0129 6.13793C14.1878 6.09884 14.3469 6.01162 14.4706 5.88704L18.0285 2.26729C18.3753 1.94529 18.8406 1.76674 19.3239 1.77022C19.8072 1.7737 20.2696 1.95893 20.6113 2.28588C20.953 2.61284 21.1464 3.05526 21.1498 3.51753C21.1533 3.9798 20.9664 4.42479 20.6296 4.75635L16.8498 8.15832C16.7196 8.27664 16.6284 8.42885 16.5875 8.59616C16.5466 8.76347 16.5579 8.93856 16.6198 9.09983L20.0995 18.2532L18.5436 19.738Z" fill="#FA646D"/>
</svg>
